<svg width="27" height="36" viewBox="0 0 27 36" fill="none" xmlns="http://www.w3.org/2000/svg">
<path d="M22.875 7.125C24.9258 7.125 26.625 8.82422 26.625 10.875V29.625C26.625 31.7344 24.9258 33.375 22.875 33.375H4.125C2.01562 33.375 0.375 31.7344 0.375 29.625V10.875C0.375 8.82422 2.01562 7.125 4.125 7.125H22.875ZM7.875 18.375C6.82031 18.375 6 19.2539 6 20.25V25.875C6 26.9297 6.82031 27.75 7.875 27.75C8.87109 27.75 9.75 26.9297 9.75 25.875V20.25C9.75 19.2539 8.87109 18.375 7.875 18.375ZM11.625 25.875C11.625 26.9297 12.4453 27.75 13.5 27.75C14.4961 27.75 15.375 26.9297 15.375 25.875V14.625C15.375 13.6289 14.4961 12.75 13.5 12.75C12.4453 12.75 11.625 13.6289 11.625 14.625V25.875ZM19.125 22.125C18.0703 22.125 17.25 23.0039 17.25 24V25.875C17.25 26.9297 18.0703 27.75 19.125 27.75C20.1211 27.75 21 26.9297 21 25.875V24C21 23.0039 20.1211 22.125 19.125 22.125Z" fill="white"/>
</svg>
